<svg xmlns="http://www.w3.org/2000/svg" width="96" height="96" viewBox="0 0 96 96" role="img" aria-labelledby="title desc">
	<title id="title">appaloft logo mark</title>
	<desc id="desc">A cloud deployment route forming a y-shaped path.</desc>
	<rect width="96" height="96" rx="18" fill="#202426" />
	<path d="M18 60c0-8.3 6.7-15 15-15 3.2 0 6.1 1 8.5 2.7A17.8 17.8 0 0 1 75 56c0 9.9-8 18-18 18H30.5C23.6 74 18 67.7 18 60Z" fill="#F5F7F7" />
	<path d="M25 32h15c6.6 0 12 5.4 12 12v23" fill="none" stroke="#0BB7A5" stroke-width="8" stroke-linecap="round" stroke-linejoin="round" />
	<path d="M70 32H52" fill="none" stroke="#F0B429" stroke-width="8" stroke-linecap="round" />
	<path d="m52 67 17-17" fill="none" stroke="#E95F4F" stroke-width="8" stroke-linecap="round" />
	<circle cx="25" cy="32" r="7" fill="#0BB7A5" />
	<circle cx="70" cy="32" r="7" fill="#F0B429" />
	<circle cx="69" cy="50" r="7" fill="#E95F4F" />
</svg>
