<svg xmlns="http://www.w3.org/2000/svg" width="360" height="96" viewBox="0 0 360 96" role="img" aria-labelledby="title desc">
	<title id="title">appaloft logo</title>
	<desc id="desc">The appaloft wordmark with a cloud deployment route symbol.</desc>
	<rect x="0" y="0" width="96" height="96" rx="18" fill="#202426" />
	<path d="M18 60c0-8.3 6.7-15 15-15 3.2 0 6.1 1 8.5 2.7A17.8 17.8 0 0 1 75 56c0 9.9-8 18-18 18H30.5C23.6 74 18 67.7 18 60Z" fill="#F5F7F7" />
	<path d="M25 32h15c6.6 0 12 5.4 12 12v23" fill="none" stroke="#0BB7A5" stroke-width="8" stroke-linecap="round" stroke-linejoin="round" />
	<path d="M70 32H52" fill="none" stroke="#F0B429" stroke-width="8" stroke-linecap="round" />
	<path d="m52 67 17-17" fill="none" stroke="#E95F4F" stroke-width="8" stroke-linecap="round" />
	<circle cx="25" cy="32" r="7" fill="#0BB7A5" />
	<circle cx="70" cy="32" r="7" fill="#F0B429" />
	<circle cx="69" cy="50" r="7" fill="#E95F4F" />
	<text x="124" y="62" fill="#202426" font-family="Inter, ui-sans-serif, system-ui, -apple-system, BlinkMacSystemFont, 'Segoe UI', sans-serif" font-size="42" font-weight="720" letter-spacing="0">appaloft</text>
	<path d="M126 73h101" fill="none" stroke="#0BB7A5" stroke-width="4" stroke-linecap="round" />
	<circle cx="243" cy="73" r="4.5" fill="#F0B429" />
	<circle cx="260" cy="73" r="4.5" fill="#E95F4F" />
</svg>
