<svg width="64" height="64" viewBox="0 0 256 256" fill="none" xmlns="http://www.w3.org/2000/svg">
  <title>Appaloft favicon</title>
  <desc>Bright app icon with high contrast cloud upload mark for Appaloft</desc>
  <rect x="20" y="20" width="216" height="216" rx="54" fill="#4E84FF"/>
  <path d="M84 181C61 181 44 164 44 142C44 123 58 108 77 104C86 75 111 56 143 56C170 56 194 72 205 96C227 103 244 123 244 149C244 179 220 201 190 201H84C83 201 84 181 84 181Z" fill="#FFFFFF"/>
  <path d="M143 82L181 124H158V166H128V124H105L143 82Z" fill="#4E84FF"/>
</svg>
